<?xml version="1.0" standalone="no"?>
<!DOCTYPE svg PUBLIC "-//W3C//DTD SVG 20010904//EN"
 "http://www.w3.org/TR/2001/REC-SVG-20010904/DTD/svg10.dtd">
<svg version="1.0" xmlns="http://www.w3.org/2000/svg"
 width="258.000000pt" height="222.000000pt" viewBox="0 0 258.000000 222.000000"
 preserveAspectRatio="xMidYMid meet">

<g transform="translate(0.000000,222.000000) scale(0.100000,-0.100000)"
fill="#000000" stroke="none">
<path d="M0 1115 l0 -1105 1285 0 1285 0 0 1105 0 1105 -1285 0 -1285 0 0
-1105z m2560 0 l0 -1095 -1275 0 -1275 0 0 1095 0 1095 1275 0 1275 0 0 -1095z"/>
<path d="M1335 2051 c-65 -23 -74 -54 -21 -76 19 -8 38 -20 41 -25 4 -6 17
-10 28 -8 12 1 27 -1 33 -4 12 -8 105 22 116 37 4 6 8 15 8 20 -1 12 -86 65
-106 65 -25 0 -15 -20 21 -41 19 -12 35 -22 35 -24 0 -2 -20 -10 -45 -19 -43
-14 -48 -14 -76 3 -41 25 -40 32 1 46 33 11 47 35 25 41 -5 2 -32 -5 -60 -15z"/>
<path d="M1068 2039 c-71 -37 -74 -75 -7 -92 70 -18 106 -15 159 16 66 38 66
60 3 81 -60 20 -110 18 -155 -5z m130 -20 c29 -11 28 -13 -12 -37 -29 -17 -40
-19 -82 -10 l-48 10 35 29 c34 28 48 29 107 8z"/>
<path d="M1640 2014 c-8 -1 -31 -5 -52 -9 -20 -3 -39 -12 -41 -20 -7 -18 72
-98 90 -91 7 3 13 1 13 -5 0 -7 25 -9 69 -7 l70 3 27 -47 c16 -27 34 -48 40
-48 7 0 14 -4 16 -10 2 -5 29 -13 60 -18 49 -8 60 -6 73 8 14 15 13 21 -11 63
-14 26 -32 47 -40 47 -18 0 -18 -21 1 -46 22 -30 18 -34 -32 -34 -43 0 -50 3
-65 31 -26 44 -23 47 28 46 29 -1 49 3 51 10 5 15 -52 26 -106 21 -22 -2 -39
-1 -38 3 4 14 -64 87 -85 91 -13 3 -30 8 -38 11 -8 2 -22 3 -30 1z m96 -93
c-12 -19 -81 -13 -110 10 -35 27 -29 43 20 50 33 4 43 1 68 -22 16 -15 25 -32
22 -38z"/>
<path d="M860 1991 c0 -5 -6 -8 -13 -5 -7 2 -32 -15 -55 -40 -34 -36 -39 -46
-29 -59 16 -20 127 -29 134 -12 2 7 12 11 21 10 24 -5 94 76 82 95 -11 17
-140 28 -140 11z m90 -35 c0 -23 -55 -56 -93 -56 -48 0 -56 18 -23 47 32 27
116 34 116 9z"/>
<path d="M657 1890 c-42 -8 -52 -14 -43 -29 4 -6 25 -8 51 -4 48 6 52 2 30
-37 -18 -32 -18 -37 -1 -43 20 -8 69 77 61 103 -7 21 -29 24 -98 10z"/>
<path d="M560 1810 c-21 -44 -22 -52 -9 -64 20 -20 131 0 127 23 -3 12 -13 15
-46 13 -47 -4 -48 -3 -27 37 8 16 11 31 8 35 -16 15 -31 2 -53 -44z"/>
<path d="M2012 1757 c-13 -15 3 -77 31 -118 21 -32 121 -67 141 -49 19 15 -3
115 -24 115 -11 0 -14 -10 -12 -37 3 -42 -3 -45 -54 -26 -26 9 -34 19 -39 46
-8 42 -5 45 29 32 70 -26 90 0 24 30 -50 23 -81 25 -96 7z"/>
<path d="M466 1734 c-22 -8 -48 -23 -58 -34 -38 -41 -51 -117 -23 -140 13 -11
23 -9 54 8 21 12 46 22 55 22 17 0 22 25 7 35 -5 3 -26 -2 -45 -12 -20 -9 -38
-14 -42 -11 -3 3 -2 22 1 41 5 26 15 38 41 51 50 23 55 21 52 -26 -2 -32 1
-43 12 -45 12 -3 19 10 27 49 16 79 -1 92 -81 62z"/>
<path d="M557 1273 c-4 -3 -7 -70 -7 -148 0 -106 3 -145 13 -153 17 -15 416
-15 433 -1 8 7 14 7 19 -1 3 -6 44 -10 97 -10 82 0 90 2 95 20 6 21 6 21 20 0
9 -13 23 -20 36 -18 19 3 22 11 25 52 2 34 -2 53 -13 66 -9 10 -15 29 -13 42
3 20 9 23 55 26 l52 3 3 -93 c3 -92 3 -93 28 -93 23 0 25 4 28 49 2 27 -2 54
-7 59 -6 6 -11 26 -11 45 l0 33 52 -3 53 -3 -3 -81 c-3 -63 0 -83 12 -93 23
-19 27 0 24 110 l-3 94 -154 3 c-117 2 -156 -1 -163 -10 -4 -7 -8 -47 -9 -88
0 -41 -3 -69 -6 -62 -7 17 -30 15 -37 -3 -4 -11 -20 -15 -56 -15 -49 0 -50 1
-50 30 0 29 0 29 68 32 l67 3 0 55 0 55 -205 0 -205 0 -3 -93 c-2 -80 -5 -93
-18 -88 -9 3 -47 6 -85 6 l-69 0 0 75 c0 58 -4 77 -15 81 -11 5 -15 22 -15 65
0 43 -4 59 -13 59 -8 0 -17 -3 -20 -7z m403 -153 l0 -30 -65 0 -65 0 0 30 0
30 65 0 65 0 0 -30z m214 22 c3 -5 2 -19 -1 -31 -5 -20 -11 -22 -67 -19 -58 3
-61 4 -64 31 l-3 27 65 0 c36 0 67 -4 70 -8z m-174 -97 c0 -17 -4 -23 -15 -19
-8 4 -17 -1 -21 -10 -4 -12 -19 -16 -55 -16 -48 0 -49 1 -49 30 0 29 0 29 68
33 37 2 68 4 70 5 1 1 2 -9 2 -23z"/>
<path d="M1570 1151 c0 -37 15 -48 30 -21 9 17 21 20 70 20 61 0 74 -7 64 -34
-4 -11 -24 -16 -82 -18 l-77 -3 0 -65 0 -65 95 0 95 0 0 105 0 105 -97 3 -98
3 0 -30z m163 -89 c3 -4 3 -19 0 -35 -5 -25 -9 -27 -54 -27 l-49 0 0 35 0 35
49 0 c28 0 52 -3 54 -8z"/>
<path d="M1794 1167 c-2 -7 -3 -56 -2 -108 l3 -94 100 0 c98 0 100 1 103 24 5
33 -15 51 -32 29 -9 -13 -27 -18 -60 -18 -46 0 -46 0 -46 34 0 18 -7 39 -15
46 -8 7 -15 25 -15 41 0 29 0 29 64 29 57 0 64 -2 69 -22 5 -18 8 -19 22 -8 9
7 15 23 13 34 -3 19 -10 21 -101 24 -75 2 -99 0 -103 -11z"/>
<path d="M448 685 c-58 -30 -109 -59 -112 -64 -3 -5 1 -15 10 -22 13 -11 23
-9 62 12 26 13 60 36 77 50 16 14 41 32 54 39 21 11 26 9 48 -13 l25 -25 -93
-63 c-51 -35 -98 -67 -104 -71 -6 -5 -6 -11 2 -19 8 -8 35 6 110 59 91 65 99
69 116 55 9 -9 17 -19 17 -23 0 -5 -38 -40 -85 -79 -81 -68 -99 -91 -74 -91
10 0 100 74 183 151 18 17 17 19 -44 88 -35 39 -68 71 -74 70 -6 0 -59 -24
-118 -54z"/>
<path d="M2022 630 c-39 -45 -41 -49 -26 -65 25 -25 120 -95 128 -95 4 0 27
21 50 46 34 38 46 45 64 40 32 -10 27 -27 -18 -71 -38 -37 -51 -65 -31 -65 16
0 112 114 109 128 -3 14 -203 131 -223 131 -5 0 -29 -22 -53 -49z m121 -20
l47 -30 -22 -30 c-12 -17 -24 -30 -26 -30 -6 0 -115 51 -121 56 -7 7 45 63 59
63 8 0 36 -13 63 -29z"/>
<path d="M1913 527 c-23 -18 -42 -37 -42 -44 -1 -16 98 -123 114 -123 7 0 18
6 24 14 11 14 -11 38 -81 87 l-23 17 24 26 c14 14 27 26 31 26 4 0 33 -20 64
-45 61 -47 76 -54 75 -32 0 16 -113 107 -131 106 -7 0 -32 -15 -55 -32z"/>
<path d="M1773 524 c-7 -18 17 -38 31 -24 11 11 1 40 -14 40 -6 0 -13 -7 -17
-16z"/>
<path d="M632 518 c-17 -17 -15 -31 4 -24 17 6 84 -31 84 -47 0 -20 -34 -17
-64 7 -44 33 -63 32 -106 -5 l-35 -30 39 -33 c21 -18 51 -41 66 -50 l28 -16
51 63 c28 34 51 67 51 73 0 10 -84 74 -98 74 -5 0 -13 -5 -20 -12z m17 -99
c20 -16 23 -24 14 -37 -15 -24 -34 -25 -63 -3 -24 19 -24 20 -6 40 23 25 25
25 55 0z"/>
<path d="M1773 434 c-29 -14 -53 -30 -53 -35 0 -5 18 -39 41 -74 40 -64 64
-80 75 -51 7 18 -25 76 -42 76 -6 0 -18 8 -27 18 -16 17 -15 20 23 45 l40 26
47 -60 c29 -38 52 -58 61 -54 7 3 16 5 18 5 2 0 4 5 4 10 0 17 -42 70 -55 70
-6 0 -22 11 -35 25 -29 31 -32 31 -97 -1z"/>
<path d="M721 384 c-50 -62 -52 -67 -36 -83 15 -15 18 -14 45 17 15 19 30 47
34 63 3 16 10 29 15 29 16 0 81 -30 81 -38 0 -4 -16 -32 -35 -62 -21 -35 -30
-59 -24 -64 12 -13 20 -4 62 70 19 34 32 66 28 72 -5 8 -104 62 -114 62 -2 0
-27 -30 -56 -66z"/>
<path d="M1100 385 c-6 -14 -10 -31 -10 -37 0 -6 -13 -8 -30 -6 -36 5 -42 -1
-64 -69 -10 -29 -21 -54 -24 -56 -4 -2 -22 0 -41 5 -28 8 -32 12 -27 31 4 12
9 33 11 47 2 14 7 37 11 53 4 17 2 27 -5 27 -14 0 -84 -138 -76 -150 9 -15
146 -53 155 -44 4 5 15 34 25 64 20 64 26 72 43 61 10 -6 10 -20 -4 -70 -14
-48 -15 -64 -5 -74 22 -22 46 6 48 54 1 24 2 51 2 60 1 9 11 20 24 23 21 6 21
7 4 20 -27 21 -18 50 16 54 37 5 29 26 -11 30 -27 3 -34 -1 -42 -23z"/>
<path d="M1485 370 c4 -26 3 -40 -4 -40 -6 0 -11 -4 -11 -10 0 -5 8 -10 19
-10 14 0 21 -13 31 -60 14 -64 30 -86 56 -76 21 8 12 61 -15 91 -26 29 -34 55
-16 55 22 0 18 21 -4 27 -12 3 -23 17 -26 34 -4 16 -13 29 -22 29 -12 0 -13
-8 -8 -40z"/>
<path d="M1680 385 c0 -3 14 -32 30 -65 17 -33 30 -61 30 -64 0 -2 -15 -9 -32
-15 -28 -10 -35 -9 -45 6 -7 10 -21 27 -31 38 -11 11 -23 30 -27 43 -3 12 -13
22 -21 22 -17 0 -15 -7 18 -97 11 -29 23 -55 28 -58 8 -5 135 37 147 48 8 9
-71 147 -84 147 -7 0 -13 -2 -13 -5z"/>
<path d="M1395 323 c-91 -8 -88 -4 -80 -91 4 -42 9 -79 11 -81 5 -6 76 -3 127
5 27 4 37 11 37 24 0 26 -21 36 -32 16 -6 -10 -22 -16 -48 -16 -36 0 -40 3
-40 24 0 14 -4 28 -10 31 -5 3 -10 17 -10 30 0 19 7 24 41 30 29 5 44 3 49 -5
13 -21 32 -2 20 21 -6 10 -14 18 -18 17 -4 -1 -25 -3 -47 -5z"/>
<path d="M1154 306 c-8 -22 5 -41 19 -27 17 17 97 14 97 -4 0 -10 -16 -15 -62
-17 l-63 -3 -7 -45 c-4 -24 -4 -47 0 -51 4 -4 41 -9 82 -11 l75 -3 0 85 0 85
-68 3 c-52 2 -69 0 -73 -12z m85 -82 c25 -5 31 -11 29 -28 -2 -16 -11 -22 -40
-24 -36 -3 -38 -2 -38 27 0 33 2 34 49 25z"/>
</g>
</svg>
